<svg version="1.1" viewBox="0.0 0.0 960.0 540.0" fill="none" stroke="none" stroke-linecap="square" stroke-miterlimit="10" xmlns:xlink="http://www.w3.org/1999/xlink" xmlns="http://www.w3.org/2000/svg"><clipPath id="g562e5d47dd_1_74.0"><path d="m0 0l960.0 0l0 540.0l-960.0 0l0 -540.0z" clip-rule="nonzero"/></clipPath><g clip-path="url(#g562e5d47dd_1_74.0)"><path fill="#ffffff" d="m0 0l960.0 0l0 540.0l-960.0 0z" fill-rule="evenodd"/><path fill="#b7b7b7" d="m439.3701 236.25493l3.3425903 -20.051056l4.1889954 5.850403l42.60611 -30.354584l-4.188965 -5.8503876l20.09851 3.3505096l-3.3426208 20.051056l-4.188965 -5.8503876l-42.60611 30.354568l4.188965 5.850403z" fill-rule="evenodd"/><path stroke="#666666" stroke-width="1.0" stroke-linejoin="round" stroke-linecap="butt" d="m439.3701 236.25493l3.3425903 -20.051056l4.1889954 5.850403l42.60611 -30.354584l-4.188965 -5.8503876l20.09851 3.3505096l-3.3426208 20.051056l-4.188965 -5.8503876l-42.60611 30.354568l4.188965 5.850403z" fill-rule="evenodd"/><path fill="#b7b7b7" d="m598.08 179.5137l14.393677 -14.393707l0 7.1968536l23.055115 0l0 -7.1968536l14.393738 14.393707l-14.393738 14.393692l0 -7.1968384l-23.055115 0l0 7.1968384z" fill-rule="evenodd"/><path stroke="#666666" stroke-width="1.0" stroke-linejoin="round" stroke-linecap="butt" d="m598.08 179.5137l14.393677 -14.393707l0 7.1968536l23.055115 0l0 -7.1968536l14.393738 14.393707l-14.393738 14.393692l0 -7.1968384l-23.055115 0l0 7.1968384z" fill-rule="evenodd"/><path fill="#b7b7b7" d="m577.33844 325.32803l69.947266 -106.39229l-6.0078735 -3.9685059l19.926758 -4.095886l4.1047363 19.969894l-6.0078735 -3.9685059l-69.947266 106.3923z" fill-rule="evenodd"/><path stroke="#666666" stroke-width="1.0" stroke-linejoin="round" stroke-linecap="butt" d="m577.33844 325.32803l69.947266 -106.39229l-6.0078735 -3.9685059l19.926758 -4.095886l4.1047363 19.969894l-6.0078735 -3.9685059l-69.947266 106.3923z" fill-rule="evenodd"/><path fill="#b7b7b7" d="m442.23923 294.6688l57.56143 41.051758l4.181122 -5.8661194l3.3676758 20.09784l-20.092102 3.3667297l4.181122 -5.86615l-57.561462 -41.05179z" fill-rule="evenodd"/><path stroke="#666666" stroke-width="1.0" stroke-linejoin="round" stroke-linecap="butt" d="m442.23923 294.6688l57.56143 41.051758l4.181122 -5.8661194l3.3676758 20.09784l-20.092102 3.3667297l4.181122 -5.86615l-57.561462 -41.05179z" fill-rule="evenodd"/><path fill="#b7b7b7" d="m741.3727 171.90552l37.41736 0l0 -7.1968536l14.393677 14.393692l-14.393677 14.393707l0 -7.1968536l-37.41736 0z" fill-rule="evenodd"/><path stroke="#666666" stroke-width="1.0" stroke-linejoin="round" stroke-linecap="butt" d="m741.3727 171.90552l37.41736 0l0 -7.1968536l14.393677 14.393692l-14.393677 14.393707l0 -7.1968536l-37.41736 0z" fill-rule="evenodd"/><path fill="#000000" fill-opacity="0.0" d="m32.72441 46.721786l894.55115 0l0 60.125984l-894.55115 0z" fill-rule="evenodd"/><path fill="#cc0000" d="m505.91208 179.10236l0 0c0 -25.100677 20.552582 -45.448807 45.905487 -45.448807l0 0c12.174927 0 23.851135 4.7883453 32.460144 13.3116455c8.608948 8.5233 13.445374 20.08339 13.445374 32.13716l0 0c0 25.100693 -20.552612 45.448822 -45.905518 45.448822l0 0c-25.352905 0 -45.905487 -20.34813 -45.905487 -45.448822z" fill-rule="evenodd"/><path stroke="#666666" stroke-width="2.0" stroke-linejoin="round" stroke-linecap="butt" d="m505.91208 179.10236l0 0c0 -25.100677 20.552582 -45.448807 45.905487 -45.448807l0 0c12.174927 0 23.851135 4.7883453 32.460144 13.3116455c8.608948 8.5233 13.445374 20.08339 13.445374 32.13716l0 0c0 25.100693 -20.552612 45.448822 -45.905518 45.448822l0 0c-25.352905 0 -45.905487 -20.34813 -45.905487 -45.448822z" fill-rule="evenodd"/><path fill="#3d85c6" d="m649.54724 179.10236l0 0c0 -25.100677 20.552612 -45.448807 45.905518 -45.448807l0 0c12.174866 0 23.851135 4.7883453 32.460083 13.3116455c8.608948 8.5233 13.445435 20.08339 13.445435 32.13716l0 0c0 25.100693 -20.552612 45.448822 -45.905518 45.448822l0 0c-25.352905 0 -45.905518 -20.34813 -45.905518 -45.448822z" fill-rule="evenodd"/><path stroke="#666666" stroke-width="2.0" stroke-linejoin="round" stroke-linecap="butt" d="m649.54724 179.10236l0 0c0 -25.100677 20.552612 -45.448807 45.905518 -45.448807l0 0c12.174866 0 23.851135 4.7883453 32.460083 13.3116455c8.608948 8.5233 13.445435 20.08339 13.445435 32.13716l0 0c0 25.100693 -20.552612 45.448822 -45.905518 45.448822l0 0c-25.352905 0 -45.905518 -20.34813 -45.905518 -45.448822z" fill-rule="evenodd"/><path fill="#f1c232" d="m793.18243 179.10236l0 0c0 -25.100677 20.552551 -45.448807 45.905518 -45.448807l0 0c12.174866 0 23.851135 4.7883453 32.460083 13.3116455c8.608948 8.5233 13.445374 20.08339 13.445374 32.13716l0 0c0 25.100693 -20.552551 45.448822 -45.905457 45.448822l0 0c-25.352966 0 -45.905518 -20.34813 -45.905518 -45.448822z" fill-rule="evenodd"/><path stroke="#666666" stroke-width="2.0" stroke-linejoin="round" stroke-linecap="butt" d="m793.18243 179.10236l0 0c0 -25.100677 20.552551 -45.448807 45.905518 -45.448807l0 0c12.174866 0 23.851135 4.7883453 32.460083 13.3116455c8.608948 8.5233 13.445374 20.08339 13.445374 32.13716l0 0c0 25.100693 -20.552551 45.448822 -45.905457 45.448822l0 0c-25.352966 0 -45.905518 -20.34813 -45.905518 -45.448822z" fill-rule="evenodd"/><path fill="#6aa84f" d="m505.91208 360.89764l0 0c0 -25.100708 20.552582 -45.448822 45.905487 -45.448822l0 0c12.174927 0 23.851135 4.78833 32.460144 13.3116455c8.608948 8.523315 13.445374 20.083405 13.445374 32.137177l0 0c0 25.100677 -20.552612 45.448822 -45.905518 45.448822l0 0c-25.352905 0 -45.905487 -20.348145 -45.905487 -45.448822z" fill-rule="evenodd"/><path stroke="#666666" stroke-width="2.0" stroke-linejoin="round" stroke-linecap="butt" d="m505.91208 360.89764l0 0c0 -25.100708 20.552582 -45.448822 45.905487 -45.448822l0 0c12.174927 0 23.851135 4.78833 32.460144 13.3116455c8.608948 8.523315 13.445374 20.083405 13.445374 32.137177l0 0c0 25.100677 -20.552612 45.448822 -45.905518 45.448822l0 0c-25.352905 0 -45.905487 -20.348145 -45.905487 -45.448822z" fill-rule="evenodd"/><path fill="#fff3d7" d="m362.27692 270.0l0 0c0 -25.100693 20.552582 -45.448822 45.905487 -45.448822l0 0c12.174896 0 23.851166 4.7883453 32.460114 13.311661c8.608948 8.5233 13.445404 20.08339 13.445404 32.13716l0 0c0 25.100677 -20.552582 45.448822 -45.905518 45.448822l0 0c-25.352905 0 -45.905487 -20.348145 -45.905487 -45.448822z" fill-rule="evenodd"/><path stroke="#666666" stroke-width="2.0" stroke-linejoin="round" stroke-linecap="butt" d="m362.27692 270.0l0 0c0 -25.100693 20.552582 -45.448822 45.905487 -45.448822l0 0c12.174896 0 23.851166 4.7883453 32.460114 13.311661c8.608948 8.5233 13.445404 20.08339 13.445404 32.13716l0 0c0 25.100677 -20.552582 45.448822 -45.905518 45.448822l0 0c-25.352905 0 -45.905487 -20.348145 -45.905487 -45.448822z" fill-rule="evenodd"/></g></svg>