<svg version="1.1" viewBox="0.0 0.0 960.0 540.0" fill="none" stroke="none" stroke-linecap="square" stroke-miterlimit="10" xmlns:xlink="http://www.w3.org/1999/xlink" xmlns="http://www.w3.org/2000/svg"><clipPath id="g562e5d47dd_1_53.0"><path d="m0 0l960.0 0l0 540.0l-960.0 0l0 -540.0z" clip-rule="nonzero"/></clipPath><g clip-path="url(#g562e5d47dd_1_53.0)"><path fill="#ffffff" d="m0 0l960.0 0l0 540.0l-960.0 0z" fill-rule="evenodd"/><path fill="#b7b7b7" d="m166.8189 171.90552l37.417328 0l0 -7.1968536l14.393707 14.393692l-14.393707 14.393707l0 -7.1968536l-37.417328 0z" fill-rule="evenodd"/><path stroke="#666666" stroke-width="1.0" stroke-linejoin="round" stroke-linecap="butt" d="m166.8189 171.90552l37.417328 0l0 -7.1968536l14.393707 14.393692l-14.393707 14.393707l0 -7.1968536l-37.417328 0z" fill-rule="evenodd"/><path fill="#b7b7b7" d="m309.50433 183.4457l57.56143 41.051773l4.1810913 -5.8661346l3.3677063 20.097824l-20.092102 3.3667297l4.1810913 -5.8661346l-57.56143 -41.051773z" fill-rule="evenodd"/><path stroke="#666666" stroke-width="1.0" stroke-linejoin="round" stroke-linecap="butt" d="m309.50433 183.4457l57.56143 41.051773l4.1810913 -5.8661346l3.3677063 20.097824l-20.092102 3.3667297l4.1810913 -5.8661346l-57.56143 -41.051773z" fill-rule="evenodd"/><path fill="#b7b7b7" d="m433.85287 232.86224l57.58368 -41.04898l-4.188965 -5.86615l20.117096 3.3639526l-3.361206 20.100616l-4.188965 -5.8661346l-57.58371 41.04898z" fill-rule="evenodd"/><path stroke="#666666" stroke-width="1.0" stroke-linejoin="round" stroke-linecap="butt" d="m433.85287 232.86224l57.58368 -41.04898l-4.188965 -5.86615l20.117096 3.3639526l-3.361206 20.100616l-4.188965 -5.8661346l-57.58371 41.04898z" fill-rule="evenodd"/><path fill="#b7b7b7" d="m442.23923 294.6688l57.56143 41.051758l4.181122 -5.8661194l3.3676758 20.09784l-20.092102 3.3667297l4.181122 -5.86615l-57.561462 -41.05179z" fill-rule="evenodd"/><path stroke="#666666" stroke-width="1.0" stroke-linejoin="round" stroke-linecap="butt" d="m442.23923 294.6688l57.56143 41.051758l4.181122 -5.8661194l3.3676758 20.09784l-20.092102 3.3667297l4.181122 -5.86615l-57.561462 -41.05179z" fill-rule="evenodd"/><path fill="#b7b7b7" d="m597.7244 171.90552l37.417297 0l0 -7.1968536l14.393738 14.393692l-14.393738 14.393707l0 -7.1968536l-37.417297 0z" fill-rule="evenodd"/><path stroke="#666666" stroke-width="1.0" stroke-linejoin="round" stroke-linecap="butt" d="m597.7244 171.90552l37.417297 0l0 -7.1968536l14.393738 14.393692l-14.393738 14.393707l0 -7.1968536l-37.417297 0z" fill-rule="evenodd"/><path fill="#b7b7b7" d="m741.3727 171.90552l37.41736 0l0 -7.1968536l14.393677 14.393692l-14.393677 14.393707l0 -7.1968536l-37.41736 0z" fill-rule="evenodd"/><path stroke="#666666" stroke-width="1.0" stroke-linejoin="round" stroke-linecap="butt" d="m741.3727 171.90552l37.41736 0l0 -7.1968536l14.393677 14.393692l-14.393677 14.393707l0 -7.1968536l-37.41736 0z" fill-rule="evenodd"/><path fill="#b7b7b7" d="m597.7244 353.70078l37.417297 0l0 -7.1968384l14.393738 14.393707l-14.393738 14.393707l0 -7.196869l-37.417297 0z" fill-rule="evenodd"/><path stroke="#666666" stroke-width="1.0" stroke-linejoin="round" stroke-linecap="butt" d="m597.7244 353.70078l37.417297 0l0 -7.1968384l14.393738 14.393707l-14.393738 14.393707l0 -7.196869l-37.417297 0z" fill-rule="evenodd"/><path fill="#000000" fill-opacity="0.0" d="m32.72441 46.721786l894.55115 0l0 60.125984l-894.55115 0z" fill-rule="evenodd"/><path fill="#3d85c6" d="m75.00656 179.10236l0 0c0 -25.100677 20.552597 -45.448807 45.90551 -45.448807l0 0c12.174904 0 23.851143 4.7883453 32.460106 13.3116455c8.608948 8.5233 13.445404 20.08339 13.445404 32.13716l0 0c0 25.100693 -20.552597 45.448822 -45.90551 45.448822l0 0c-25.352913 0 -45.90551 -20.34813 -45.90551 -45.448822z" fill-rule="evenodd"/><path stroke="#666666" stroke-width="2.0" stroke-linejoin="round" stroke-linecap="butt" d="m75.00656 179.10236l0 0c0 -25.100677 20.552597 -45.448807 45.90551 -45.448807l0 0c12.174904 0 23.851143 4.7883453 32.460106 13.3116455c8.608948 8.5233 13.445404 20.08339 13.445404 32.13716l0 0c0 25.100693 -20.552597 45.448822 -45.90551 45.448822l0 0c-25.352913 0 -45.90551 -20.34813 -45.90551 -45.448822z" fill-rule="evenodd"/><path fill="#cc0000" d="m505.91208 179.10236l0 0c0 -25.100677 20.552582 -45.448807 45.905487 -45.448807l0 0c12.174927 0 23.851135 4.7883453 32.460144 13.3116455c8.608948 8.5233 13.445374 20.08339 13.445374 32.13716l0 0c0 25.100693 -20.552612 45.448822 -45.905518 45.448822l0 0c-25.352905 0 -45.905487 -20.34813 -45.905487 -45.448822z" fill-rule="evenodd"/><path stroke="#666666" stroke-width="2.0" stroke-linejoin="round" stroke-linecap="butt" d="m505.91208 179.10236l0 0c0 -25.100677 20.552582 -45.448807 45.905487 -45.448807l0 0c12.174927 0 23.851135 4.7883453 32.460144 13.3116455c8.608948 8.5233 13.445374 20.08339 13.445374 32.13716l0 0c0 25.100693 -20.552612 45.448822 -45.905518 45.448822l0 0c-25.352905 0 -45.905487 -20.34813 -45.905487 -45.448822z" fill-rule="evenodd"/><path fill="#3d85c6" d="m649.54724 179.10236l0 0c0 -25.100677 20.552612 -45.448807 45.905518 -45.448807l0 0c12.174866 0 23.851135 4.7883453 32.460083 13.3116455c8.608948 8.5233 13.445435 20.08339 13.445435 32.13716l0 0c0 25.100693 -20.552612 45.448822 -45.905518 45.448822l0 0c-25.352905 0 -45.905518 -20.34813 -45.905518 -45.448822z" fill-rule="evenodd"/><path stroke="#666666" stroke-width="2.0" stroke-linejoin="round" stroke-linecap="butt" d="m649.54724 179.10236l0 0c0 -25.100677 20.552612 -45.448807 45.905518 -45.448807l0 0c12.174866 0 23.851135 4.7883453 32.460083 13.3116455c8.608948 8.5233 13.445435 20.08339 13.445435 32.13716l0 0c0 25.100693 -20.552612 45.448822 -45.905518 45.448822l0 0c-25.352905 0 -45.905518 -20.34813 -45.905518 -45.448822z" fill-rule="evenodd"/><path fill="#f1c232" d="m793.18243 179.10236l0 0c0 -25.100677 20.552551 -45.448807 45.905518 -45.448807l0 0c12.174866 0 23.851135 4.7883453 32.460083 13.3116455c8.608948 8.5233 13.445374 20.08339 13.445374 32.13716l0 0c0 25.100693 -20.552551 45.448822 -45.905457 45.448822l0 0c-25.352966 0 -45.905518 -20.34813 -45.905518 -45.448822z" fill-rule="evenodd"/><path stroke="#666666" stroke-width="2.0" stroke-linejoin="round" stroke-linecap="butt" d="m793.18243 179.10236l0 0c0 -25.100677 20.552551 -45.448807 45.905518 -45.448807l0 0c12.174866 0 23.851135 4.7883453 32.460083 13.3116455c8.608948 8.5233 13.445374 20.08339 13.445374 32.13716l0 0c0 25.100693 -20.552551 45.448822 -45.905457 45.448822l0 0c-25.352966 0 -45.905518 -20.34813 -45.905518 -45.448822z" fill-rule="evenodd"/><path fill="#6aa84f" d="m505.91208 360.89764l0 0c0 -25.100708 20.552582 -45.448822 45.905487 -45.448822l0 0c12.174927 0 23.851135 4.78833 32.460144 13.3116455c8.608948 8.523315 13.445374 20.083405 13.445374 32.137177l0 0c0 25.100677 -20.552612 45.448822 -45.905518 45.448822l0 0c-25.352905 0 -45.905487 -20.348145 -45.905487 -45.448822z" fill-rule="evenodd"/><path stroke="#666666" stroke-width="2.0" stroke-linejoin="round" stroke-linecap="butt" d="m505.91208 360.89764l0 0c0 -25.100708 20.552582 -45.448822 45.905487 -45.448822l0 0c12.174927 0 23.851135 4.78833 32.460144 13.3116455c8.608948 8.523315 13.445374 20.083405 13.445374 32.137177l0 0c0 25.100677 -20.552612 45.448822 -45.905518 45.448822l0 0c-25.352905 0 -45.905487 -20.348145 -45.905487 -45.448822z" fill-rule="evenodd"/><path fill="#3d85c6" d="m649.54724 360.89764l0 0c0 -25.100708 20.552612 -45.448822 45.905518 -45.448822l0 0c12.174866 0 23.851135 4.78833 32.460083 13.3116455c8.608948 8.523315 13.445435 20.083405 13.445435 32.137177l0 0c0 25.100677 -20.552612 45.448822 -45.905518 45.448822l0 0c-25.352905 0 -45.905518 -20.348145 -45.905518 -45.448822z" fill-rule="evenodd"/><path stroke="#666666" stroke-width="2.0" stroke-linejoin="round" stroke-linecap="butt" d="m649.54724 360.89764l0 0c0 -25.100708 20.552612 -45.448822 45.905518 -45.448822l0 0c12.174866 0 23.851135 4.78833 32.460083 13.3116455c8.608948 8.523315 13.445435 20.083405 13.445435 32.137177l0 0c0 25.100677 -20.552612 45.448822 -45.905518 45.448822l0 0c-25.352905 0 -45.905518 -20.348145 -45.905518 -45.448822z" fill-rule="evenodd"/><path fill="#cc0000" d="m218.64174 179.10236l0 0c0 -25.100677 20.552597 -45.448807 45.905502 -45.448807l0 0c12.174896 0 23.851135 4.7883453 32.460114 13.3116455c8.608948 8.5233 13.445404 20.08339 13.445404 32.13716l0 0c0 25.100693 -20.552612 45.448822 -45.905518 45.448822l0 0c-25.352905 0 -45.905502 -20.34813 -45.905502 -45.448822z" fill-rule="evenodd"/><path stroke="#666666" stroke-width="2.0" stroke-linejoin="round" stroke-linecap="butt" d="m218.64174 179.10236l0 0c0 -25.100677 20.552597 -45.448807 45.905502 -45.448807l0 0c12.174896 0 23.851135 4.7883453 32.460114 13.3116455c8.608948 8.5233 13.445404 20.08339 13.445404 32.13716l0 0c0 25.100693 -20.552612 45.448822 -45.905518 45.448822l0 0c-25.352905 0 -45.905502 -20.34813 -45.905502 -45.448822z" fill-rule="evenodd"/><path fill="#fff3d7" d="m362.27692 270.0l0 0c0 -25.100693 20.552582 -45.448822 45.905487 -45.448822l0 0c12.174896 0 23.851166 4.7883453 32.460114 13.311661c8.608948 8.5233 13.445404 20.08339 13.445404 32.13716l0 0c0 25.100677 -20.552582 45.448822 -45.905518 45.448822l0 0c-25.352905 0 -45.905487 -20.348145 -45.905487 -45.448822z" fill-rule="evenodd"/><path stroke="#666666" stroke-width="2.0" stroke-linejoin="round" stroke-linecap="butt" d="m362.27692 270.0l0 0c0 -25.100693 20.552582 -45.448822 45.905487 -45.448822l0 0c12.174896 0 23.851166 4.7883453 32.460114 13.311661c8.608948 8.5233 13.445404 20.08339 13.445404 32.13716l0 0c0 25.100677 -20.552582 45.448822 -45.905518 45.448822l0 0c-25.352905 0 -45.905487 -20.348145 -45.905487 -45.448822z" fill-rule="evenodd"/></g></svg>